<svg width="16" height="18" viewBox="0 0 16 18" fill="none" xmlns="http://www.w3.org/2000/svg">
<mask id="mask0_464_2" style="mask-type:luminance" maskUnits="userSpaceOnUse" x="0" y="0" width="16" height="18">
<path d="M16 0.910034H0V17.91H16V0.910034Z" fill="white"/>
</mask>
<g mask="url(#mask0_464_2)">
<path fill-rule="evenodd" clip-rule="evenodd" d="M16 9.83007C16 14.2483 12.4183 17.83 8 17.83C3.58172 17.83 0 14.2483 0 9.83007C0 5.4118 3.58172 1.83008 8 1.83008C12.4183 1.83008 16 5.4118 16 9.83007ZM6.00963 12.7201C6.16422 12.8659 6.36191 12.9389 6.55962 12.9389C6.75738 12.9389 6.95501 12.8659 7.10963 12.7201L11.9462 8.13724C12.7123 7.41436 11.579 6.26954 10.8462 6.96084L6.55962 11.0247L4.98799 9.53932C4.22184 8.81644 3.15524 10.0243 3.88797 10.7157L6.00963 12.7201Z" fill="#497F64"/>
</g>
</svg>
