<svg width="56" height="42" viewBox="0 0 56 42" fill="none" xmlns="http://www.w3.org/2000/svg">
<path id="&#226;&#128;&#156;" d="M31.1678 42V30.0197C31.1678 21.941 33.1892 15.3311 37.2319 10.1902C41.2746 4.95738 47.2447 1.56066 55.1422 0V10.3279C51.8516 11.0623 49.1251 12.4393 46.9627 14.459C44.8943 16.3869 43.531 18.682 42.8729 21.3443H52.3216V42H31.1678ZM0.142151 42V30.0197C0.142151 21.941 2.16352 15.3311 6.20625 10.1902C10.249 4.95738 16.2191 1.56066 24.1165 0V10.3279C20.8259 11.0623 18.0994 12.4393 15.937 14.459C13.8686 16.3869 12.5054 18.682 11.8473 21.3443H21.296V42H0.142151Z" fill="#497F64"/>
</svg>
