<svg width="98" height="62" viewBox="0 0 98 62" fill="none" xmlns="http://www.w3.org/2000/svg">
<g id="Group 20">
<rect id="Rectangle 9" y="0.888916" width="62.2222" height="61.1111" rx="30.5556" fill="#A1CC9F"/>
<rect id="Rectangle 10" x="24.3334" y="1.44447" width="61.1111" height="60" rx="30" stroke="#A1CC9F" stroke-width="1.11111"/>
<rect id="Rectangle 12" x="36.3334" y="1.44447" width="61.1111" height="60" rx="30" stroke="#A1CC9F" stroke-width="1.11111"/>
<rect id="Rectangle 11" x="11.3334" y="1.44447" width="61.1111" height="60" rx="30" stroke="#A1CC9F" stroke-width="1.11111"/>
<g id="Group 19">
<path id="Ellipse 6" d="M52.7162 30.0248C52.7162 24.0656 50.3489 18.3505 46.1352 14.1367C41.9214 9.92294 36.2063 7.55566 30.2471 7.55566C24.2879 7.55566 18.5728 9.92294 14.359 14.1367C10.1452 18.3505 7.77796 24.0656 7.77795 30.0248L30.2471 30.0248H52.7162Z" fill="#161616"/>
<path id="Ellipse 7" d="M7.79089 31.6819C7.98857 37.7199 10.4338 43.443 14.6121 47.6469C18.7903 51.8509 24.3759 54.208 30.1937 54.2223C36.0114 54.2367 41.6077 51.9072 45.8052 47.7239C50.0027 43.5406 52.474 37.8297 52.6993 31.7927L50.2821 31.6954C50.0811 37.0824 47.8758 42.1785 44.1302 45.9114C40.3846 49.6443 35.3908 51.7231 30.1994 51.7103C25.008 51.6975 20.0238 49.5941 16.2953 45.8428C12.5669 42.0914 10.3849 36.9845 10.2085 31.5965L7.79089 31.6819Z" fill="#161616"/>
<path id="Ellipse 8" d="M13.1887 31.8073C13.2685 36.2475 15.0955 40.4772 18.2762 43.5851C21.4569 46.6929 25.7367 48.4303 30.1935 48.4228C34.6504 48.4153 38.9277 46.6636 42.1039 43.5451C45.28 40.4265 47.1009 36.1908 47.1742 31.7502L44.7549 31.7129C44.692 35.5212 43.1304 39.1539 40.4064 41.8285C37.6824 44.503 34.0141 46.0053 30.1918 46.0117C26.3695 46.0182 22.699 44.5282 19.9711 41.8628C17.2433 39.1974 15.6764 35.5699 15.608 31.7618L13.1887 31.8073Z" fill="#161616"/>
</g>
</g>
</svg>
