<svg width="16" height="17" viewBox="0 0 16 17" fill="none" xmlns="http://www.w3.org/2000/svg">
<path fill-rule="evenodd" clip-rule="evenodd" d="M16 8.73004C16 13.1483 12.4183 16.73 8 16.73C3.58172 16.73 0 13.1483 0 8.73004C0 4.31176 3.58172 0.730042 8 0.730042C12.4183 0.730042 16 4.31176 16 8.73004ZM6.00963 11.6201C6.16422 11.7659 6.36191 11.8389 6.55962 11.8389C6.75738 11.8389 6.95501 11.7659 7.10963 11.6201L11.9462 7.0372C12.7123 6.31432 11.579 5.1695 10.8462 5.86081L6.55962 9.92473L4.98799 8.43929C4.22184 7.71641 3.15524 8.92428 3.88797 9.61567L6.00963 11.6201Z" fill="white"/>
</svg>
